<?xml version="1.0" encoding="UTF-8" standalone="no"?>
<svg
   xmlns:dc="http://purl.org/dc/elements/1.1/"
   xmlns:cc="http://creativecommons.org/ns#"
   xmlns:rdf="http://www.w3.org/1999/02/22-rdf-syntax-ns#"
   xmlns:svg="http://www.w3.org/2000/svg"
   xmlns="http://www.w3.org/2000/svg"
   xmlns:sodipodi="http://sodipodi.sourceforge.net/DTD/sodipodi-0.dtd"
   xmlns:inkscape="http://www.inkscape.org/namespaces/inkscape"
   viewBox="0 0 406.67087 893.08929"
   version="1.1"
   id="svg52"
   sodipodi:docname="gps-295077.svg"
   width="406.67087"
   height="893.08929"
   inkscape:version="0.92.2 5c3e80d, 2017-08-06">
  <metadata
     id="metadata58">
    <rdf:RDF>
      <cc:Work
         rdf:about="">
        <dc:format>image/svg+xml</dc:format>
        <dc:type
           rdf:resource="http://purl.org/dc/dcmitype/StillImage" />
        <dc:title></dc:title>
      </cc:Work>
    </rdf:RDF>
  </metadata>
  <defs
     id="defs56" />
  <sodipodi:namedview
     pagecolor="#ffffff"
     bordercolor="#666666"
     borderopacity="1"
     objecttolerance="10"
     gridtolerance="10"
     guidetolerance="10"
     inkscape:pageopacity="0"
     inkscape:pageshadow="2"
     inkscape:window-width="2048"
     inkscape:window-height="1088"
     id="namedview54"
     showgrid="false"
     fit-margin-top="0"
     fit-margin-left="0"
     fit-margin-right="0"
     fit-margin-bottom="0"
     inkscape:zoom="0.472"
     inkscape:cx="-313.25302"
     inkscape:cy="462.04495"
     inkscape:window-x="0"
     inkscape:window-y="27"
     inkscape:window-maximized="1"
     inkscape:current-layer="svg52" />
  <path
     style="fill:#b0b1a4;fill-rule:evenodd;stroke:#b0b1a4;stroke-width:0.5"
     inkscape:connector-curvature="0"
     id="path4"
     d="m 355.25415,393.53929 3,-0.2 4,0.5 q 4,0.5 2.2,115.5 -1.7,115 -2.4,116.2 -0.8,1.3 -89.8,6.3 -89,5 -94.5,5.3 l -5.5,0.2 0.2,-47 q 0.3,-47 0.8,-119.5 0.5,-72.5 9.2,-73.3 l 8.8,-0.7 v -0.5 l 80.5,-1.2 q 80.5,-1.3 83.5,-1.6 z" />
  <path
     style="fill-rule:evenodd;stroke:#000000;stroke-width:0.5"
     inkscape:connector-curvature="0"
     id="path6"
     d="m 343.25415,278.33929 5,0.5 2.5,0.3 2.5,0.2 17.8,3 q 17.7,3 20,4 2.2,1 5,6.5 2.7,5.5 2.7,105 0,99.5 -0.3,113.5 l -0.2,14 -2.2,44 q -2.3,44 -2.6,55 l -0.2,11 h -0.2 q -0.3,0 -0.8,7 -0.5,7 -3.2,13.2 -2.8,6.3 -9.8,9.8 -7,3.5 -11.5,3.5 -4.5,0 -10,-0.5 -5.5,-0.5 -10,1.5 -4.5,2 -7.5,6.7 -3,4.8 -12,8 -9,3.3 -14,3.8 -5,0.5 -8.2,-1.2 -3.3,-1.8 -9.6,-4 -6.2,-2.3 -16.2,-2.8 -10,-0.5 -14.5,0.5 -4.5,1 -16.5,7 -12,6 -23.5,3.5 -11.5,-2.5 -12.3,-3.8 -0.7,-1.2 -5.2,-5.2 -4.5,-4 -11.2,-5 l -6.8,-1 h -0.5 l -0.3,0.2 -0.2,0.3 -2,0.5 q -2,0.5 -3.5,1.5 -1.5,1 -10,-0.5 -8.5,-1.5 -13,-4 -4.5,-2.5 -6.7,-6.8 -2.3,-4.2 -3.6,-69.7 l -1.2,-65.5 0.2,-2.5 0.3,-2.5 0.5,2 0.5,2 0.3,-0.2 0.2,-0.3 0.2,-0.3 0.3,-0.2 0.5,-2.5 q 0.5,-2.5 1,-2 0.5,0.5 2.8,-76.5 2.2,-77 3.2,-77 1,0 0.5,-0.8 -0.5,-0.7 -1,-4 -0.5,-3.2 0.5,-3.4 1,-0.3 0,-0.6 -1,-0.2 -0.8,-6.2 0.3,-6 1,-21.5 0.8,-15.5 1.8,-15.7 1,-0.3 0.2,-1.6 -0.7,-1.2 0,-13.7 0.8,-12.5 2.8,-13 2,-0.5 3,-3 l 1,-2.5 h 0.2 q 0.3,0 0.6,-0.5 l 0.2,-0.5 30.5,-3.8 q 30.5,-3.7 47.5,-4.7 17,-1 46.5,-0.5 29.5,0.5 37,1 7.5,0.5 12.5,1 z m 18,68.8 v 0.2 h 6 l -0.5,22.5 q -0.5,22.5 -4.5,22.7 -4,0.3 -4,0.6 v 0.2 l 4,0.5 q 4,0.5 2.2,115.5 -1.7,115 -2.4,116.2 -0.8,1.3 -89.8,6.3 -89,5 -94.5,5.3 l -5.5,0.2 0.2,-47 q 0.3,-47 0.8,-119.5 0.5,-72.5 9.2,-73.3 l 8.8,-0.7 v -0.5 h -17 v -49 l 0.2,-7 0.3,-7 0.5,-1.5 0.5,-1.5 0.3,0.2 0.2,0.3 h 3 l 1,-0.3 1,-0.2 -0.2,1 -0.3,1 -0.3,0.2 -0.2,0.3 -0.2,0.3 -0.3,0.2 -0.3,0.2 -0.2,0.3 -0.2,0.3 -0.3,0.2 1.3,1 q 1.2,1 0.7,1.8 -0.5,0.7 -0.7,0.4 -0.3,-0.2 -0.6,1.3 l -0.2,1.5 1,0.2 1,0.3 0.2,0.3 0.3,0.2 0.3,0.2 0.2,0.3 0.2,0.3 0.3,0.2 0.3,-1 q 0.2,-1 4.4,-1.5 4.3,-0.5 4.6,-2.5 0.2,-2 1.2,-2 1,0 1,2.5 0,2.5 2.5,2.5 h 2.5 l 0.2,-1 0.3,-1 0.3,0.2 0.2,0.3 0.2,0.3 0.3,0.2 1.3,-0.5 q 1.2,-0.5 1.7,-5 0.5,-4.5 12,-6.3 11.5,-1.7 79.5,-1.7 68,0 68.8,0.7 0.7,0.8 1,9.8 0.2,9 -1.8,9.8 -2,0.7 -2,1 z" />
  <path
     style="fill:#303132;fill-rule:evenodd;stroke:#303132;stroke-width:0.5"
     inkscape:connector-curvature="0"
     id="path8"
     d="m 247.45415,53.839285 -0.2,15.5 h -0.2 q -0.3,0 -1.6,3.8 -1.2,3.7 -2,3 l -0.7,-0.8 -0.3,0.2 -0.2,0.3 -0.2,0.3 -0.3,0.2 0.5,7 q 0.5,7 2,13.5 1.5,6.500005 0.5,12.500005 -1,6 -1.5,5.5 -0.5,-0.5 -2,4 -1.5,4.5 -2.2,10.5 -0.8,6 2,7 2.7,1 1.4,1.5 -1.2,0.5 -1.2,5 0,4.5 1,4.5 1,0 1.8,3.5 0.7,3.5 1,4 l 0.2,0.5 h -1 q -1,0 -1.2,5 -0.3,5 -0.6,11 l -0.2,6 -0.2,1 q -0.3,1 -0.8,2 -0.5,1 -8.2,7.8 -7.8,6.7 -18.3,8.7 -10.5,2 -24,4.7 -13.5,2.8 -13.5,3.8 0,1 -1,1 -1,0 -3.2,3.5 -2.3,3.5 -3.3,7.5 -1,4 0.5,6.5 1.5,2.5 -2,4.5 l -3.5,2 -0.3,0.2 -0.2,0.3 1.5,0.5 1.5,0.5 -0.2,0.3 -0.3,0.2 v 2 l 0.3,-0.2 0.2,-0.3 0.2,-0.3 0.3,-0.2 0.3,0.2 0.2,0.3 0.2,0.3 0.3,0.2 v 1 l -0.3,0.2 -0.2,0.3 1,0.3 1,0.2 v 0.5 l -3,0.5 q -3,0.5 -14,3 l -11,2.5 -1,0.3 -1,0.2 -0.2,-0.5 -0.3,-0.5 -0.5,-1.5 -0.5,-1.5 -0.5,-1.5 -0.5,-1.5 -0.3,-0.2 -0.2,-0.3 2.5,-0.5 q 2.5,-0.5 2.7,-0.8 0.3,-0.2 -1.4,-1.4 -1.8,-1.3 -2.3,-2.6 -0.5,-1.2 0.5,-1.4 1,-0.3 6.5,-4.3 5.5,-4 4.7,-7.7 -0.7,-3.8 -2,-4.3 -1.2,-0.5 -1.2,-1.5 0,-1 -1,-1.2 -1,-0.3 -1.2,-3 l -0.3,-2.8 0.5,-2.5 0.5,-2.5 0.3,-1 0.2,-1 h 0.5 l 0.5,3 q 0.5,3 1,4.5 l 0.5,1.5 0.3,0.2 0.2,0.3 3.2,1.3 q 3.3,1.2 3.6,1.4 0.2,0.3 0.4,0.6 l 0.3,0.2 0.3,0.2 0.2,0.3 0.2,0.3 0.3,0.2 0.5,-1 q 0.5,-1 5.8,-4 5.2,-3 6,-5 0.7,-2 0.7,-4 0,-2 0.7,-10.2 0.8,-8.3 1.6,-13.6 0.7,-5.2 2.7,-15.2 2,-10 2.5,-17 0.5,-7 0.8,-16.5 0.2,-9.5 1.2,-9.7 1,-0.3 0.2,-1.6 -0.7,-1.2 0,-1.7 0.8,-0.5 1.8,-9 1,-8.500005 0,-8.500005 -1,0 -1,-1 0,-1 1,-1 1,0 1.2,-17.5 0.3,-17.5 0.8,-28 0.5,-10.5 0.8,-19 0.2,-8.5 -1.3,-8.5 -1.5,0 -1.5,-1.5 0,-1.5 -6.5,-2.7 -6.5,-1.3 -9.5,0 l -3,1.2 -0.2,1 -0.3,1 -0.3,0.2 -0.2,0.3 -1,0.3 -1,0.2 0.2,-1 0.3,-1 h 0.5 v -0.5 l 0.5,-0.3 0.5,-0.2 v -0.5 l 0.2,-0.3 0.3,-0.2 V 9.3392851 l -0.3,-0.2 -0.2,-0.3 1.5,-1 q 1.5,-1 0.5,-1.3 -1,-0.2 -1,-1.2 v -1 l 18.5,-2.2 q 18.5,-2.29999996 36,-1.79999996 17.5,0.5 21.3,2.19999996 3.7,1.8 5.7,4.3 2,2.5 2.5,16.9999999 0.5,14.5 0.2,30 z" />
  <path
     style="fill:#b0b1a3;fill-rule:evenodd;stroke:#b0b1a3;stroke-width:0.5"
     inkscape:connector-curvature="0"
     id="path10"
     d="m 174.25415,371.83929 v -24.5 l 51,0.2 q 51,0.3 93.5,0 l 42.5,-0.2 h 6 l -0.5,22.5 q -0.5,22.5 -4.5,22.7 -4,0.3 -4,0.6 v 0.2 l -3,0.2 q -3,0.3 -83.5,1.6 l -80.5,1.2 h -17 z" />
  <path
     style="fill:#e2bf3c;fill-rule:evenodd;stroke:#e2bf3c;stroke-width:0.5"
     inkscape:connector-curvature="0"
     id="path12"
     d="m 98.054147,246.33929 3.200003,-3 0.2,1 0.3,1 0.3,0.2 0.2,0.3 0.2,0.3 0.3,0.2 0.3,0.2 0.2,0.3 1.5,0.3 1.5,0.2 v 4 h 1 q 1,0 1,-1 0,-1 6.5,-1.8 6.5,-0.7 12.5,-2.2 6,-1.5 8,-1.8 l 2,-0.2 v 0.5 l 1,0.3 1,0.2 v 1 q 0,1 2.5,1.8 2.5,0.7 1.5,1 -1,0.2 -2.2,6.7 -1.3,6.5 -1.8,19 -0.5,12.5 -0.5,29 0,16.5 0.7,44.5 0.8,28 1.6,28.5 0.7,0.5 0,3.7 -0.8,3.3 0.2,3.6 1,0.2 0.2,3.2 -0.7,3 -0.2,4 0.5,1 1,2 l 0.5,1 0.3,-0.2 0.2,-0.3 0.2,-0.3 0.3,-0.2 0.3,-0.2 0.2,-0.3 0.2,-0.3 0.3,-0.2 0.5,3 0.5,3 0.3,0.2 0.2,0.3 0.2,0.3 0.3,0.2 0.3,-1.5 0.2,-1.5 h 2 l -0.2,15 q -0.3,15 -0.3,68 v 53 h 0.5 l 1.2,65.5 q 1.3,65.5 3.6,69.7 2.2,4.3 6.7,6.8 4.5,2.5 13,4 8.5,1.5 10,0.5 1.5,-1 3.5,-1.5 l 2,-0.5 0.2,-0.3 0.3,-0.2 h 0.5 v 0.5 l 0.2,0.3 0.3,0.2 0.3,0.2 0.2,0.3 0.2,0.3 0.3,0.2 0.3,0.2 0.2,0.3 -0.2,0.3 -0.3,0.2 v 3 l 0.3,0.2 0.2,0.3 0.2,0.3 0.3,0.2 0.3,0.2 0.2,0.3 -1,0.5 -1,0.5 -3.8,2.7 q -3.7,2.8 -3.4,4 0.2,1.3 -0.8,1.6 -1,0.2 -2,4.7 -1,4.5 0,4.5 1,0 0.5,0.8 -0.5,0.7 -0.7,0.4 -0.3,-0.2 -0.3,0.8 v 1 l 0.3,1.5 0.2,1.5 -1,0.2 -1,0.3 -0.2,0.3 -0.3,0.2 -0.3,0.2 -0.2,0.3 h -2 l -0.2,-0.3 -0.3,-0.2 -0.3,0.5 -0.2,0.5 h -0.5 l -0.5,-1 q -0.5,-1 -2.5,-4 -2,-3 -13.3,-8 l -11.2,-5 -1,-0.2 q -1,-0.3 -18,-7.8 l -17,-7.5 h -3 l -0.2,0.3 -0.3,0.2 v 12 l -0.3,-0.2 -0.2,-0.3 -0.2,-0.3 -0.3,-0.2 -0.3,-0.2 -0.2,-0.3 -0.2,-0.3 -0.3,-0.2 -0.3,-0.2 -0.2,-0.3 h -4 v 0.5 h -0.5 l -0.5,-4.5 q -0.500003,-4.5 -1.000003,-7.5 -0.5,-3 -3,-5.5 -2.5,-2.5 -5.5,-68 -3,-65.5 -2,-167 1,-101.5 3.5,-143.5 2.5,-42 5.8,-45 z" />
  <path
     style="fill:#d8d9da;fill-rule:evenodd;stroke:#d8d9da;stroke-width:0.5"
     inkscape:connector-curvature="0"
     id="path14"
     d="m 112.05415,805.83929 0.2,-3.5 3.2,8 q 3.3,8 4.3,5.5 1,-2.5 2.5,1 1.5,3.5 2,5 l 0.5,1.5 0.5,1 0.5,1 0.3,0.5 0.2,0.5 1.8,5 q 1.7,5 3.2,8 1.5,3 11.8,11.8 10.2,8.7 20.2,12.7 10,4 14,5.5 4,1.5 7.2,1.8 3.3,0.2 4.3,2.2 1,2 1.3,2.2 l 0.2,0.3 1,0.5 1,0.5 1.5,0.3 1.5,0.2 v 0.5 l 4.5,3 q 4.5,3 26,3.5 21.5,0.5 26.5,0.2 l 5,-0.2 v 0.5 l -0.2,0.3 -0.3,0.2 -0.3,0.2 -0.2,0.3 -1.5,0.5 -1.5,0.5 -0.2,0.3 -0.3,0.2 -0.3,0.2 -0.2,0.3 -2,0.5 q -2,0.5 -5.5,1.5 -3.5,1 -18,2 -14.5,1 -39.5,1 -25,0 -48.5,-2.5 -23.5,-2.5 -54.500003,-10.5 -31,-8 -49,-14 -18,-6 -25.8000003,-11.3 -7.7,-5.2 -8.69999998,-11.2 -1,-6 0,-8.5 0.99999998,-2.5 5.69999998,-5.7 4.8000003,-3.3 16.8000003,-7.3 12,-4 49.5,-8.3 37.500003,-4.2 37.700003,-5.2 0.3,-1 0.8,0 l 0.5,1 z" />
  <path
     style="fill:#e0bb39;fill-rule:evenodd;stroke:#e0bb39;stroke-width:0.5"
     inkscape:connector-curvature="0"
     id="path16"
     d="m 256.05415,834.83929 0.2,3.5 1,-0.2 1,-0.3 0.2,-0.3 0.3,-0.2 0.3,-0.2 0.2,-0.3 0.2,-0.3 0.3,-0.2 0.5,-1 0.5,-1 0.3,-1.5 q 0.2,-1.5 1.2,-1.5 1,0 1.5,-2.8 0.5,-2.7 1,-4 0.5,-1.2 2.3,-1.7 1.7,-0.5 2,-1.5 0.2,-1 1.7,-1 1.5,0 1,1.2 -0.5,1.3 0.7,1 1.3,-0.2 1.6,-1.2 0.2,-1 2,-0.5 1.7,0.5 2,1.7 0.2,1.3 1.2,1 1,-0.2 1.5,1 0.5,1.3 2,2 1.5,0.8 1.7,6.3 l 0.3,5.5 0.3,-0.2 0.2,-0.3 1.5,-0.3 1.5,-0.2 0.2,-1.5 0.3,-1.5 0.3,0.2 0.2,0.3 1,0.3 1,0.2 v -2.5 q 0,-2.5 2.5,-1.7 2.5,0.7 3.3,-2.6 l 0.7,-3.2 0.3,-0.2 0.2,-0.3 0.2,-0.3 0.3,-0.2 0.3,-0.2 0.2,-0.3 0.2,-0.3 0.3,-0.2 0.5,7 0.5,7 0.5,-1 0.5,-1 0.3,-1 q 0.2,-1 4,-1 3.7,0 4.2,0.5 0.5,0.5 2.8,-1.7 2.2,-2.3 4.7,-2.6 2.5,-0.2 2,1 -0.5,1.3 0.5,1.6 1,0.2 1.5,1 0.5,0.7 0.7,0.4 l 0.3,-0.2 0.5,0.5 q 0.5,0.5 0.8,0.7 l 0.2,0.3 0.2,0.3 0.3,0.2 0.3,0.2 0.2,0.3 1,0.3 1,0.2 -1.2,3 q -1.3,3 -1.8,9.5 l -0.5,6.5 v 2 h 0.5 v 0.2 q 0,0.3 -4.2,5 -4.3,4.8 -9.6,7 -5.2,2.3 -15.2,7.3 -10,5 -24,6.3 l -14,1.2 -5,0.2 q -5,0.3 -26.5,-0.2 -21.5,-0.5 -26,-3.5 l -4.5,-3 v -0.5 l 0.5,-0.2 0.5,-0.3 -0.2,-0.3 -0.3,-0.2 -0.3,-0.2 -0.2,-0.3 -1,-0.5 -1,-0.5 -0.2,-0.3 -0.3,-0.2 -0.3,-0.2 -0.2,-0.3 -0.2,-0.3 -0.3,-0.2 -0.3,-0.2 -0.2,-0.3 -0.2,-0.3 -0.3,-0.2 -0.3,-1 -0.2,-1 2.5,0.2 2.5,0.3 h 6 q 6,0 8,-1 2,-1 3.8,-3.7 1.7,-2.8 2.7,-11.3 1,-8.5 0,-11.5 -1,-3 -0.5,-8 l 0.5,-5 0.3,-0.2 0.2,-0.3 v -0.5 h 3 v 4 l 1,0.2 1,0.3 h 1 l 0.2,-0.3 0.3,-0.2 0.3,0.2 0.2,0.3 h 1 l 0.8,-0.7 q 0.7,-0.8 0.4,-1.8 -0.2,-1 2.6,-1.5 2.7,-0.5 3,-1.5 0.2,-1 1.2,-1 1,0 4,-3.2 3,-3.3 8.2,-2 5.3,1.2 8.3,5.2 3,4 3.3,7.5 z m 48.4,-0.3 q 0.3,-0.2 0.6,0 l 0.2,0.3 h -0.5 q -0.5,0 -0.3,-0.3 z" />
  <path
     style="fill:#292b2c;fill-rule:evenodd;stroke:#292b2c;stroke-width:0.5"
     inkscape:connector-curvature="0"
     id="path18"
     d="m 280.25415,697.83929 q 13,0 20.2,4.3 7.3,4.2 11.8,10.2 4.5,6 7,15 2.5,9 2,15 -0.5,6 -4,15.5 -3.5,9.5 -9.5,16.5 -6,7 -14.7,11.8 -8.8,4.7 -17.8,5.2 -9,0.5 -17.5,-2.5 -8.5,-3 -13.5,-8 -5,-5 -8.8,-13.7 -3.7,-8.8 -4.2,-17.3 -0.5,-8.5 0.5,-12.5 1,-4 5.5,-13 4.5,-9 9.2,-13.8 4.8,-4.7 12.8,-8.7 8,-4 21,-4 z" />
  <path
     style="fill:#292a2b;fill-rule:evenodd;stroke:#292a2b;stroke-width:0.5"
     inkscape:connector-curvature="0"
     id="path20"
     d="m 146.05415,702.33929 1.2,-10 11.2,5 q 11.3,5 13.3,8 2,3 2.5,4 l 0.5,1 h 0.5 v 0.5 l 0.2,0.3 0.3,0.2 0.3,0.2 0.2,0.3 0.2,0.3 0.3,0.2 0.3,0.2 0.2,0.3 0.2,0.3 0.3,0.2 0.3,0.2 0.2,0.3 0.2,0.3 0.3,0.2 0.3,0.2 0.2,0.3 4,2 q 4,2 5,2.3 l 1,0.2 -0.8,2 q -0.7,2 -4.7,3.5 -4,1.5 -5.3,2 -1.2,0.5 -1.7,1.7 -0.5,1.3 -1.5,1.6 -1,0.2 -2.8,5.2 -1.7,5 -1.2,12.5 0.5,7.5 3,11.5 2.5,4 6.8,6.8 4.2,2.7 9.2,2.7 h 5 l 1.5,-0.5 1.5,-0.5 -4.5,-0.5 q -4.5,-0.5 -6,-1 l -1.5,-0.5 -0.2,-0.3 -0.3,-0.2 -0.3,-0.2 -0.2,-0.3 -0.2,-0.3 -0.3,-0.2 -0.3,-0.2 -0.2,-0.3 -0.2,-0.3 -0.3,-0.2 -0.3,-0.2 -0.2,-0.3 1.5,-0.5 1.5,-0.5 -0.2,-0.3 -0.3,-0.2 v -2 l 2.3,-1 q 2.2,-1 2,-2.5 -0.3,-1.5 0.4,-3.7 0.8,-2.3 1.6,-1.6 0.7,0.8 1.7,-1.2 1,-2 2.5,0 1.5,2 2.5,0 1,-2 1.5,-0.5 l 0.5,1.5 0.5,-1 0.5,-1 0.5,-1 0.5,-1 0.3,-0.2 0.2,-0.3 0.2,-0.3 0.3,-0.2 0.3,-0.2 0.2,-0.3 -0.2,-0.3 -0.3,-0.2 -0.3,-0.2 q -0.2,-0.3 -1.7,-1 -1.5,-0.8 -2.3,-3.3 l -0.7,-2.5 -0.3,-0.2 -0.2,-0.3 -0.2,-0.3 -0.3,-0.2 -0.3,-1 -0.2,-1 -1,-0.2 -1,-0.3 0.2,-0.3 0.3,-0.2 0.3,-0.2 0.2,-0.3 h 6 l 1,0.5 1,0.5 0.2,0.3 0.3,0.2 0.3,0.2 0.2,0.3 2.2,2.3 q 2.3,2.2 4.6,6.4 2.2,4.3 3.2,4.6 1,0.2 1.5,-1 0.5,-1.3 1.5,-1 l 1,0.2 0.2,1 q 0.3,1 0.6,1 h 0.2 l -0.2,3 q -0.3,3 -0.6,18.5 l -0.2,15.5 h -0.2 q -0.3,0 -0.8,2 l -0.5,2 -0.5,2.5 -0.5,2.5 -0.3,-0.2 -0.2,-0.3 -0.2,-0.3 -0.3,-0.2 -0.5,-1 -0.5,-1 -3.7,-4.2 q -3.8,-4.3 -13.3,-5.3 -9.5,-1 -13,1.3 -3.5,2.2 -3.5,3.2 0,1 -1.8,2.5 -1.7,1.5 -3.7,5.5 -2,4 -0.5,11.5 1.5,7.5 2,8.5 l 0.5,1 0.3,0.2 0.2,0.3 0.2,0.3 0.3,0.2 0.3,0.2 0.2,0.3 0.2,0.3 0.3,0.2 0.3,0.2 0.2,0.3 0.2,0.3 0.3,0.2 0.3,0.2 0.2,0.3 0.2,0.3 0.3,0.2 0.3,0.2 0.2,0.3 0.2,0.3 0.3,0.2 0.3,0.2 0.2,0.3 1,0.3 1,0.2 -0.2,-1 -0.3,-1 -0.3,-0.2 -0.2,-0.3 -0.2,-0.3 -0.3,-0.2 -0.3,-0.2 -0.2,-0.3 -1,-0.5 -1,-0.5 -0.2,-0.3 -0.3,-0.2 -0.5,-1.5 q -0.5,-1.5 -1,-6.5 l -0.5,-5 0.3,-0.2 0.2,-0.3 0.2,-0.3 0.3,-0.2 0.3,-0.2 0.2,-0.3 0.2,-0.3 0.3,-0.2 0.3,0.2 0.2,0.3 h 4 l 0.2,0.3 0.3,0.2 1.3,1.8 q 1.2,1.7 3.2,0 2,-1.8 2.2,1.2 l 0.3,3 0.5,-1 0.5,-1 0.5,-2.5 q 0.5,-2.5 1,-3 0.5,-0.5 -1.2,-6 l -1.8,-5.5 1,-0.2 1,-0.3 2,-0.5 2,-0.5 h 5 l 4.8,3.7 q 4.7,3.8 5.7,6.3 1,2.5 1.3,5 l 0.2,2.5 h 2 l 0.2,-1 q 0.3,-1 1.3,-2.5 l 1,-1.5 h 0.5 l -1.8,12 q -1.7,12 -1.7,14 v 2 l -0.3,0.5 -0.2,0.5 v 0.5 l -0.2,0.3 -0.3,0.2 -0.5,5 q -0.5,5 0.5,8 1,3 0,11.5 -1,8.5 -2.7,11.3 -1.8,2.7 -3.8,3.7 -2,1 -8,1 h -6 l -2.5,-0.3 -2.5,-0.2 0.2,1 0.3,1 0.3,0.2 0.2,0.3 0.2,0.3 0.3,0.2 0.3,0.2 0.2,0.3 0.2,0.3 0.3,0.2 0.3,0.2 0.2,0.3 1,0.5 1,0.5 0.2,0.3 0.3,0.2 0.3,0.2 0.2,0.3 -0.5,0.3 -0.5,0.2 -1.5,-0.2 -1.5,-0.3 -1,-0.5 -1,-0.5 -0.2,-0.3 q -0.3,-0.2 -1.3,-2.2 -1,-2 -4.3,-2.2 -3.2,-0.3 -7.2,-1.8 -4,-1.5 -14,-5.5 -10,-4 -20.2,-12.7 -10.3,-8.8 -11.8,-11.8 -1.5,-3 -3.2,-8 l -1.8,-5 0.5,-0.2 0.5,-0.3 0.2,-0.3 0.3,-0.2 0.3,0.2 0.2,0.3 h 1 l 0.2,-0.3 0.3,-0.2 0.3,0.2 0.2,0.3 0.2,0.3 0.3,0.2 0.5,-4.5 q 0.5,-4.5 0.8,-8 0.2,-3.5 1.2,-3.5 1,0 2,-1.8 1,-1.7 1,-3.4 0,-1.8 2.2,-2.3 2.3,-0.5 3.8,-3.5 1.5,-3 3.5,-5.5 2,-2.5 3.7,-3 1.8,-0.5 1,-7 -0.7,-6.5 -1.7,-21 -1,-14.5 -1,-21 0,-6.5 -0.5,-8 -0.5,-1.5 -0.5,-10.5 0,-9 -1,-10 -1,-1 0.3,-11 z" />
  <path
     style="fill:#d0a935;fill-rule:evenodd;stroke:#d0a935;stroke-width:0.5"
     inkscape:connector-curvature="0"
     id="path22"
     d="m 215.25415,231.53929 3,-0.2 -0.2,0.5 -0.3,0.5 -0.3,0.2 -0.2,0.3 3,0.5 3,0.5 -1.5,0.3 -1.5,0.2 v 2 h 2.2 q 2.3,0 50.6,0.8 48.2,0.7 54.7,2 6.5,1.2 7.5,3 1,1.7 2,2 1,0.2 1.5,1.4 0.5,1.3 -0.7,2.6 -1.3,1.2 -0.3,3.7 1,2.5 2,10.5 1,8 4.3,10.2 3.2,2.3 5.7,2.6 l 2.5,0.2 0.2,1.5 0.3,1.5 0.3,0.5 0.2,0.5 -2.5,-0.2 -2.5,-0.3 -5,-0.5 q -5,-0.5 -12.5,-1 -7.5,-0.5 -37,-1 -29.5,-0.5 -46.5,0.5 -17,1 -47.5,4.7 l -30.5,3.8 -0.5,0.2 q -0.5,0.3 -0.5,0.6 v 0.2 l -1,0.2 q -1,0.3 -3.5,1.8 l -2.5,1.5 -3.2,3.3 q -3.3,3.2 -4.8,8.7 -1.5,5.5 -2.5,37 -1,31.5 -1.3,44.5 l -0.2,13 h -2 l -0.2,1.5 -0.3,1.5 -0.3,-0.2 -0.2,-0.3 -0.2,-0.3 -0.3,-0.2 -0.5,-3 -0.5,-3 -0.3,0.2 -0.2,0.3 -0.2,0.3 -0.3,0.2 -0.3,0.2 -0.2,0.3 -0.2,0.3 -0.3,0.2 -0.5,-1 q -0.5,-1 -1,-2 -0.5,-1 0.2,-4 0.8,-3 -0.2,-3.2 -1,-0.3 -0.2,-3.6 0.7,-3.2 0,-3.7 -0.8,-0.5 -1.6,-28.5 -0.7,-28 -0.7,-44.5 0,-16.5 0.5,-29 0.5,-12.5 1.8,-19 1.2,-6.5 2.2,-6.7 1,-0.3 -1.5,-1 -2.5,-0.8 -2.5,-1.8 v -1 l -1,-0.2 -1,-0.3 v -1 l 1.5,-0.3 1.5,-0.2 1,-0.2 1,-0.3 11,-2.5 q 11,-2.5 14,-3 l 3,-0.5 v -0.5 l 21,-2.2 q 21,-2.3 24,-2.6 z" />
  <path
     style="fill:#e7c848;fill-rule:evenodd;stroke:#e7c848;stroke-width:0.5"
     inkscape:connector-curvature="0"
     id="path24"
     d="m 374.75415,234.83929 h 1.5 l 3,0.5 3,0.5 0.2,0.3 0.3,0.2 0.5,-1.5 0.5,-1.5 h 0.5 l 5.2,3.5 q 5.3,3.5 5.6,4.5 0.2,1 5,5 4.7,4 5.7,29.5 1,25.5 0.5,104.5 -0.5,79 -2,106 -1.5,27 -2,28.5 l -0.5,1.5 -0.5,2 -0.5,2 -0.3,0.2 -0.2,0.3 -0.2,0.3 -0.3,0.2 -0.5,2 -0.5,2 h -0.5 l 0.2,-14 q 0.3,-14 0.3,-113.5 0,-99.5 -2.7,-105 -2.8,-5.5 -5,-6.5 -2.3,-1 -20,-4 l -17.8,-3 -0.2,-0.5 -0.3,-0.5 -0.3,-1.5 -0.2,-1.5 -2.5,-0.2 q -2.5,-0.3 -5.7,-2.6 -3.3,-2.2 -4.3,-10.2 -1,-8 -2,-10.5 -1,-2.5 0.3,-3.7 1.2,-1.3 0.7,-2.6 -0.5,-1.2 -1.5,-1.4 -1,-0.3 -2,-2 -1,-1.8 -7.5,-3 -6.5,-1.3 -54.7,-2 -48.3,-0.8 -50.6,-0.8 h -2.2 v -2 l 1.5,-0.2 1.5,-0.3 -3,-0.5 -3,-0.5 0.2,-0.3 0.3,-0.2 0.3,-0.5 0.2,-0.5 1.5,-0.2 1.5,-0.3 20.5,-1.5 q 20.5,-1.5 43.5,-1 23,0.5 55.5,3.5 32.5,3 34,3 z" />
  <path
     style="fill:#dbb539;fill-rule:evenodd;stroke:#dbb539;stroke-width:0.5"
     inkscape:connector-curvature="0"
     id="path26"
     d="m 393.05415,635.33929 h 0.2 l -0.8,15.5 q -0.7,15.5 -1,18.7 -0.2,3.3 -2.4,8.6 -2.3,5.2 -2.6,5.7 l -0.2,0.5 -5.8,4 q -5.7,4 -8,9.2 -2.2,5.3 -6.7,8.8 -4.5,3.5 -14,4 -9.5,0.5 -14.3,7.2 -4.7,6.8 -6.7,12.8 -2,6 -3,45 -1,39 0,42.5 1,3.5 1,9 v 5.5 l -0.5,2 -0.5,2 h -0.5 l -1,-0.2 -1,-0.3 -0.2,-0.3 -0.3,-0.2 -0.3,-0.2 -0.2,-0.3 -0.2,-0.3 q -0.3,-0.2 -0.8,-0.7 l -0.5,-0.5 -0.3,0.2 q -0.2,0.3 -0.7,-0.4 -0.5,-0.8 -1.5,-1 -1,-0.3 -0.5,-1.6 0.5,-1.2 -3,-0.4 -3.5,0.7 -3.5,2.4 0,1.8 -2,1 -2,-0.7 -4.5,-0.2 -2.5,0.5 -2,1 l 0.5,0.5 -2,0.3 -2,0.2 -0.2,1 -0.3,1 -0.5,-7 -0.5,-7 -0.3,0.2 -0.2,0.3 -0.2,0.3 -0.3,0.2 -0.3,0.2 -0.2,0.3 -0.2,0.3 -0.3,0.2 -0.7,3.2 q -0.8,3.3 -3.3,2.6 -2.5,-0.8 -2.5,1.7 v 2.5 l -1,-0.2 -1,-0.3 -0.2,-0.3 -0.3,-0.2 -0.3,1.5 -0.2,1.5 -1.5,0.2 -1.5,0.3 -0.2,0.3 -0.3,0.2 -0.3,-5.5 q -0.2,-5.5 -1.7,-6.3 -1.5,-0.7 -2,-2 -0.5,-1.2 -1.5,-1 -1,0.3 -1.2,-1 -0.3,-1.2 -2,-1.7 -1.8,-0.5 -2,0.5 -0.3,1 -1.6,1.2 -1.2,0.3 -2,-1 -0.7,-1.2 -1.2,-0.2 -0.5,1 -2.2,1.5 -1.8,0.5 -2.3,1.7 -0.5,1.3 -1,4 -0.5,2.8 -1.5,2.8 -1,0 -1.2,1.5 l -0.3,1.5 -0.5,1 -0.5,1 -0.3,0.2 -0.2,0.3 -0.2,0.3 -0.3,0.2 -0.3,0.2 -0.2,0.3 -1,0.3 -1,0.2 -0.2,-3.5 q -0.3,-3.5 -3.3,-7.5 -3,-4 -8.3,-5.2 -5.2,-1.3 -8.2,2 -3,3.2 -4,3.2 -1,0 -1.2,1 -0.3,1 -3,1.5 -2.8,0.5 -2.6,1.5 0.3,1 -0.4,1.8 l -0.8,0.7 h -1 l -0.2,-0.3 -0.3,-0.2 -0.3,0.2 -0.2,0.3 h -1 l -1,-0.3 -1,-0.2 v -4 h -3 l 0.2,-0.5 0.3,-0.5 v -2 q 0,-2 1.7,-14 l 1.8,-12 -0.2,-6 q -0.3,-6 -0.6,-7.5 l -0.2,-1.5 0.2,-15.5 q 0.3,-15.5 0.6,-18.5 l 0.2,-3 -0.2,-5.5 q -0.3,-5.5 -0.8,-7 -0.5,-1.5 -3.5,-6.5 -3,-5 -7.3,-8.2 -4.2,-3.3 -6.2,-2.8 -2,0.5 -7.5,0.8 l -5.5,0.2 -1,-0.2 q -1,-0.3 -5,-2.3 l -4,-2 -0.2,-0.3 -0.3,-0.2 -0.3,-0.2 -0.2,-0.3 -0.2,-0.3 -0.3,-0.2 -0.3,-0.2 -0.2,-0.3 -0.2,-0.3 -0.3,-0.2 -0.3,-0.2 -0.2,-0.3 -0.2,-0.3 -0.3,-0.2 -0.3,-0.2 -0.2,-0.3 v -0.5 l 0.2,-0.5 0.3,-0.5 0.3,0.2 0.2,0.3 h 2 l 0.2,-0.3 0.3,-0.2 0.3,-0.2 0.2,-0.3 1,-0.3 1,-0.2 -0.2,-1.5 -0.3,-1.5 v -1 q 0,-1 0.3,-0.8 0.2,0.3 0.7,-0.4 0.5,-0.8 -0.5,-0.8 -1,0 0,-4.5 1,-4.5 2,-4.7 1,-0.3 0.8,-1.6 -0.3,-1.2 3.4,-4 l 3.8,-2.7 1,-0.5 1,-0.5 -0.2,-0.3 -0.3,-0.2 -0.3,-0.2 -0.2,-0.3 -0.2,-0.3 -0.3,-0.2 v -3 l 0.3,-0.2 0.2,-0.3 -0.2,-0.3 -0.3,-0.2 -0.3,-0.2 -0.2,-0.3 -0.2,-0.3 -0.3,-0.2 -0.3,-0.2 -0.2,-0.3 v -0.5 l 6.8,1 q 6.7,1 11.2,5 4.5,4 5.2,5.2 0.8,1.3 12.3,3.8 11.5,2.5 23.5,-3.5 12,-6 16.5,-7 4.5,-1 14.5,-0.5 10,0.5 16.2,2.8 6.3,2.2 9.6,4 3.2,1.7 8.2,1.2 5,-0.5 14,-3.8 9,-3.2 12,-8 3,-4.7 7.5,-6.7 4.5,-2 10,-1.5 5.5,0.5 10,0.5 4.5,0 11.5,-3.5 7,-3.5 9.8,-9.8 2.7,-6.2 3.2,-13.2 0.5,-7 0.8,-7 z m -112.8,62.5 q 13,0 20.2,4.3 7.3,4.2 11.8,10.2 4.5,6 7,15 2.5,9 2,15 -0.5,6 -4,15.5 -3.5,9.5 -9.5,16.5 -6,7 -14.7,11.8 -8.8,4.7 -17.8,5.2 -9,0.5 -17.5,-2.5 -8.5,-3 -13.5,-8 -5,-5 -8.8,-13.7 -3.7,-8.8 -4.2,-17.3 -0.5,-8.5 0.5,-12.5 1,-4 5.5,-13 4.5,-9 9.2,-13.8 4.8,-4.7 12.8,-8.7 8,-4 21,-4 z" />
  <path
     style="fill:#fdfdfd;fill-rule:evenodd;stroke:#fdfdfd;stroke-width:0.5"
     inkscape:connector-curvature="0"
     id="path28"
     d="m 244.25415,155.33929 h 1 l 4.5,2.8 q 4.5,2.7 6,3.4 1.5,0.8 5.7,9.3 4.3,8.5 4.8,15 0.5,6.5 0,8 l -0.5,1.5 -0.3,0.2 -0.2,0.3 v 0.5 l -0.5,0.2 -0.5,0.3 v 0.5 l -0.5,0.2 -0.5,0.3 v 0.5 l -0.5,0.2 -0.5,0.3 -0.2,0.3 -0.3,0.2 -0.3,0.2 -0.2,0.3 h -2 l -1,-0.5 -1,-0.5 -0.2,-0.3 -0.3,-0.2 -0.3,-0.2 -0.2,-0.3 -1,-0.5 q -1,-0.5 -4,-3.5 -3,-3 -6,-9.7 l -3,-6.8 0.2,-6 q 0.3,-6 0.6,-11 0.2,-5 1.2,-5 z" />
  <path
     style="fill:#2d2f31;fill-rule:evenodd;stroke:#2d2f31;stroke-width:0.5"
     inkscape:connector-curvature="0"
     id="path30"
     d="m 247.05415,69.339285 h 0.2 l 6.8,21.5 q 6.7,21.500005 14.4,38.300005 7.8,16.7 19.8,34.7 12,18 19,26 7,8 7.2,8.3 l 0.3,0.2 0.3,0.2 0.2,0.3 0.2,0.3 0.3,0.2 0.3,0.2 0.2,0.3 0.2,0.3 0.3,0.2 0.3,0.2 0.2,0.3 0.2,0.3 0.3,0.2 0.3,0.2 0.2,0.3 0.2,0.3 0.3,0.2 0.3,0.2 0.2,0.3 0.2,0.3 0.3,0.2 0.3,0.5 0.2,0.5 -3.5,-0.2 -3.5,-0.3 -1.5,-0.5 q -1.5,-0.5 -5.5,-1 -4,-0.5 -15.5,-0.5 h -11.5 l 2.5,1.5 q 2.5,1.5 0,2.5 -2.5,1 -2,1.5 0.5,0.5 0.7,0.8 l 0.3,0.2 0.3,1 0.2,1 -1,0.2 -1,0.3 -1,0.5 -1,0.5 h -3 l -1,-0.5 q -1,-0.5 -4,-2 l -3,-1.5 -0.2,-0.3 q -0.3,-0.2 -0.8,-1.2 -0.5,-1 1.5,-2 2,-1 -0.3,-1.5 -2.2,-0.5 -2.7,-2.5 l -0.5,-2 h 0.2 q 0.3,0 0.6,-0.5 l 0.2,-0.5 h 0.2 q 0.3,0 0.6,-0.5 l 0.2,-0.5 v -0.5 l 0.2,-0.3 0.3,-0.2 0.5,-1.5 q 0.5,-1.5 0,-8 -0.5,-6.5 -4.8,-15 -4.2,-8.5 -5.7,-9.3 -1.5,-0.7 -6,-3.4 l -4.5,-2.8 -0.2,-0.5 q -0.3,-0.5 -1,-4 -0.8,-3.5 -1.8,-3.5 -1,0 -1,-4.5 0,-4.5 1.2,-5 1.3,-0.5 -1.4,-1.5 -2.8,-1 -2,-7 0.7,-6 2.2,-10.5 1.5,-4.5 2,-4 0.5,0.5 1.5,-5.5 1,-6 -0.5,-12.500005 -1.5,-6.5 -2,-13.5 l -0.5,-7 0.3,-0.2 0.2,-0.3 0.2,-0.3 0.3,-0.2 0.7,0.8 q 0.8,0.7 2,-3 1.3,-3.8 1.6,-3.8 z" />
  <path
     style="fill:#676a6b;fill-rule:evenodd;stroke:#676a6b;stroke-width:0.5"
     inkscape:connector-curvature="0"
     id="path32"
     d="m 242.05415,178.33929 0.2,-1 3,6.8 q 3,6.7 6,9.7 3,3 4,3.5 l 1,0.5 0.2,0.3 0.3,0.2 0.3,0.2 0.2,0.3 1,0.5 1,0.5 h 2 l 0.2,-0.3 0.3,-0.2 0.7,-1.2 q 0.8,-1.3 1.8,-1.6 l 1,-0.2 -0.8,2 q -0.7,2 -0.4,3 0.2,1 2.4,1.5 2.3,0.5 0.3,1.5 -2,1 -1.5,2 0.5,1 0.8,1.2 l 0.2,0.3 3,1.5 q 3,1.5 4,2 l 1,0.5 h 3 l 1,-0.5 1,-0.5 1,-0.3 1,-0.2 -0.2,-1 -0.3,-1 -0.3,-0.2 q -0.2,-0.3 -0.7,-0.8 -0.5,-0.5 2,-1.5 2.5,-1 0,-2.5 l -2.5,-1.5 h 11.5 q 11.5,0 15.5,0.5 4,0.5 5.5,1 l 1.5,0.5 3.5,0.3 3.5,0.2 4,2.8 q 4,2.7 25,10.7 21,8 24,9.5 3,1.5 4,2 l 1,0.5 0.2,0.3 0.3,0.2 0.3,0.2 0.2,0.3 1.5,0.5 1.5,0.5 1,0.5 1,0.5 v 0.5 h -0.5 l -0.5,1.5 -0.5,1.5 -0.3,-0.2 -0.2,-0.3 -3,-0.5 -3,-0.5 h -1.5 q -1.5,0 -34,-3 -32.5,-3 -55.5,-3.5 -23,-0.5 -43.5,1 l -20.5,1.5 -1.5,0.3 -1.5,0.2 -3,0.2 q -3,0.3 -24,2.6 l -21,2.2 -1,-0.2 -1,-0.3 0.2,-0.3 0.3,-0.2 v -1 l -0.3,-0.2 -0.2,-0.3 -0.2,-0.3 -0.3,-0.2 -0.3,0.2 -0.2,0.3 -0.2,0.3 -0.3,0.2 v -2 l 0.3,-0.2 0.2,-0.3 -1.5,-0.5 -1.5,-0.5 0.2,-0.3 0.3,-0.2 3.5,-2 q 3.5,-2 2,-4.5 -1.5,-2.5 -0.5,-6.5 1,-4 3.3,-7.5 2.2,-3.5 3.2,-3.5 1,0 1,-1 0,-1 13.5,-3.8 13.5,-2.7 24,-4.7 10.5,-2 18.3,-8.7 7.7,-6.8 8.2,-7.8 0.5,-1 0.8,-2 z" />
  <path
     style="fill:#070909;fill-rule:evenodd;stroke:#070909;stroke-width:0.5"
     inkscape:connector-curvature="0"
     id="path34"
     d="m 158.25415,210.33929 -0.5,1 -0.3,-0.2 -0.2,-0.3 -0.2,-0.3 -0.3,-0.2 -0.3,-0.2 q -0.2,-0.3 -0.4,-0.6 -0.3,-0.2 -3.6,-1.4 l -3.2,-1.3 -0.2,-0.3 -0.3,-0.2 -0.5,-1.5 q -0.5,-1.5 -1,-4.5 l -0.5,-3 h -0.5 l 0.2,-4.5 q 0.3,-4.5 0.8,-24.5 0.5,-20 5.8,-84.200005 5.2,-64.3 7.2,-66 l 2,-1.8 0.5,0.2 q 0.5,0.3 3.5,-1.2 3,-1.5 9.5,-0.2 6.5,1.2 6.5,2.7 0,1.5 1.5,1.5 1.5,0 1.3,8.5 -0.3,8.5 -0.8,19 -0.5,10.5 -1,30 -0.5,19.5 -1.2,27.000005 -0.8,7.5 -1.6,8 -0.7,0.5 -0.7,8 0,7.5 -1,16 -1,8.5 -1.5,13 -0.5,4.5 -2,12 -1.5,7.5 -2.2,12.7 -0.8,5.3 -1.6,13.6 -0.7,8.2 -0.4,11.4 0.2,3.3 -6,7 -6.3,3.8 -6.8,4.8 z m 2.2,-191.200005 q -0.2,-0.3 0,-0.6 0.3,-0.2 0.3,0.3 0,0.5 -0.3,0.3 z" />
  <path
     style="fill:#171a1a;fill-rule:evenodd;stroke:#171a1a;stroke-width:0.5"
     inkscape:connector-curvature="0"
     id="path36"
     d="m 168.25415,285.53929 1,-0.2 v 1 q 0,1 -1,1 -1,0 -1.5,2 -0.5,2 -2.5,2.5 -2,0.5 -2.5,11.3 -0.5,10.7 0,15 0.5,4.2 -0.5,4.2 -1,0 -1.5,11.5 -0.5,11.5 1,11.5 1.5,0 1.5,1 0,1 -1.2,0.5 -1.3,-0.5 -1.8,3 -0.5,3.5 -0.8,8.5 -0.2,5 0.8,5.2 1,0.3 0,0.6 -1,0.2 -0.5,3.4 0.5,3.3 1,4 0.5,0.8 -0.5,0.8 -1,0 -1,3.5 0,3.5 1,3.5 1,0 1,1 0,1 -1.5,1 -1.5,0 -3.3,72.5 -1.7,72.5 -2.2,72 -0.5,-0.5 -1,2 l -0.5,2.5 -0.3,0.2 -0.2,0.3 -0.2,0.3 -0.3,0.2 -0.5,-2 -0.5,-2 -0.3,2.5 -0.2,2.5 h -0.5 v -53 q 0,-53 0.3,-68 l 0.2,-15 0.2,-13 q 0.3,-13 1.3,-44.5 1,-31.5 2.5,-37 1.5,-5.5 4.8,-8.7 l 3.2,-3.3 3,-2 q 3,-2 4,-2.3 z" />
  <path
     style="fill:#3f4040;fill-rule:evenodd;stroke:#3f4040;stroke-width:0.5"
     inkscape:connector-curvature="0"
     id="path38"
     d="m 380.45415,688.33929 5.8,-4 0.8,4.5 q 0.7,4.5 1,9 0.2,4.5 -1.3,4.5 -1.5,0 -2,12.8 -0.5,12.7 -0.7,17 -0.3,4.2 -1.3,5.2 -1,1 -2.5,13.5 -1.5,12.5 -1.5,18.5 0,6 -1,7 -1,1 -3,15 -2,14 -3,18 -1,4 -3.5,7.5 -2.5,3.5 -4.5,7 -2,3.5 -3.5,8 -1.5,4.5 -2.8,5.7 -1.2,1.3 -3.2,1.6 -2,0.2 -2,1.2 0,1 -7.8,6.5 -7.7,5.5 -9.2,7.5 -1.5,2 -1.8,2.2 l -0.2,0.3 -4.5,0.3 -4.5,0.2 h -0.5 v -2 l 0.5,-6.5 q 0.5,-6.5 1.8,-9.5 l 1.2,-3 h 0.5 l 0.5,-2 0.5,-2 v -5.5 q 0,-5.5 -1,-9 -1,-3.5 0,-42.5 1,-39 3,-45 2,-6 6.7,-12.8 4.8,-6.7 14.3,-7.2 9.5,-0.5 14,-4 4.5,-3.5 6.7,-8.8 2.3,-5.2 8,-9.2 z" />
  <path
     style="fill:#656765;fill-rule:evenodd;stroke:#656765;stroke-width:0.5"
     inkscape:connector-curvature="0"
     id="path40"
     d="m 153.45415,7.3392851 9.8,-3 v 1 q 0,1 1,1.2 1,0.3 -0.5,1.3 l -1.5,1 0.2,0.3 0.3,0.2 v 5.9999999 l -0.3,0.2 -0.2,0.3 v 0.5 l -0.5,0.2 -0.5,0.3 v 0.5 h -1 q -1,0 -6.2,54 -5.3,54.000005 -6.3,85.500005 -1,31.5 -1.3,36 l -0.2,4.5 -0.2,1 -0.3,1 -0.5,2.5 -0.5,2.5 0.3,2.8 q 0.2,2.7 1.2,3 1,0.2 1,1.2 0,1 1.2,1.5 1.3,0.5 2,4.3 0.8,3.7 -4.7,7.7 -5.5,4 -6.5,4.3 -1,0.2 -0.5,1.4 0.5,1.3 2.3,2.6 1.7,1.2 1.4,1.4 -0.2,0.3 -2.7,0.8 l -2.5,0.5 0.2,0.3 0.3,0.2 0.5,1.5 0.5,1.5 0.5,1.5 0.5,1.5 0.3,0.5 0.2,0.5 -1.5,0.2 -1.5,0.3 v 0.5 l -2,0.2 q -2,0.3 -8,1.8 -6,1.5 -12.5,2.2 -6.5,0.8 -6.5,1.8 0,1 -1,1 h -1 v -4 l -1.5,-0.2 -1.5,-0.3 -0.2,-0.3 -0.3,-0.2 -0.3,-0.2 -0.2,-0.3 -0.2,-0.3 -0.3,-0.2 -0.3,-1 -0.2,-1 h 0.5 l 0.5,-3.5 q 0.5,-3.5 4,-7 3.5,-3.5 7,-10.5 3.5,-7 13,-102.5 9.5,-95.500005 11.2,-101.000005 1.8,-5.5 4,-7 2.3,-1.5 12,-4.4999999 z" />
  <path
     style="fill:#191918;fill-rule:evenodd;stroke:#191918;stroke-width:0.5"
     inkscape:connector-curvature="0"
     id="path42"
     d="m 220.05415,742.83929 0.2,5.5 h -0.2 q -0.3,0 -0.6,-1 l -0.2,-1 -1,-0.2 q -1,-0.3 -1.5,1 -0.5,1.2 -1.5,1 -1,-0.3 -3.2,-4.6 -2.3,-4.2 -4.6,-6.4 l -2.2,-2.3 -0.2,-0.3 -0.3,-0.2 -0.3,-0.2 -0.2,-0.3 -1,-0.5 -1,-0.5 h -6 l -0.2,0.3 -0.3,0.2 -0.3,0.2 -0.2,0.3 1,0.3 1,0.2 0.2,1 0.3,1 0.3,0.2 0.2,0.3 0.2,0.3 0.3,0.2 0.7,1.5 q 0.8,1.5 1.8,1.5 1,0 1.5,1.8 0.5,1.7 0.7,2 l 0.3,0.2 0.3,0.2 0.2,0.3 -0.2,0.3 -0.3,0.2 -0.3,0.2 -0.2,0.3 -0.2,0.3 -0.3,0.2 -0.5,1 -0.5,1 -0.5,1 -0.5,1 -0.5,-1.5 q -0.5,-1.5 -1.5,0.5 -1,2 -2.5,0 -1.5,-2 -2.5,0 -1,2 -1.7,1.2 -0.8,-0.7 -1.6,1.6 -0.7,2.2 -0.4,3.7 0.2,1.5 -2,2.5 l -2.3,1 v 2 l 0.3,0.2 0.2,0.3 -1.5,0.5 -1.5,0.5 0.2,0.3 0.3,0.2 0.3,0.2 0.2,0.3 0.2,0.3 0.3,0.2 0.3,0.2 0.2,0.3 0.2,0.3 0.3,0.2 0.3,0.2 0.2,0.3 1.5,0.5 q 1.5,0.5 6,1 l 4.5,0.5 -1.5,0.5 -1.5,0.5 h -5 q -5,0 -9.2,-2.7 -4.3,-2.8 -6.8,-6.8 -2.5,-4 -3,-11.5 -0.5,-7.5 1.2,-12.5 1.8,-5 2.8,-5.2 1,-0.3 1.5,-1.6 0.5,-1.2 1.7,-1.7 1.3,-0.5 5.3,-2 4,-1.5 4.7,-3.5 l 0.8,-2 5.5,-0.2 q 5.5,-0.3 7.5,-0.8 2,-0.5 6.2,2.8 4.3,3.2 7.3,8.2 3,5 3.5,6.5 0.5,1.5 0.8,7 z" />
  <path
     style="fill:#4a4d4e;fill-rule:evenodd;stroke:#4a4d4e;stroke-width:0.5"
     inkscape:connector-curvature="0"
     id="path44"
     d="m 108.05415,677.13929 0.2,-0.3 h 3 l 17,7.5 q 17,7.5 18,7.8 l 1,0.2 -1.2,10 q -1.3,10 -0.3,11 1,1 1,10 0,9 0.5,10.5 0.5,1.5 0.5,8 0,6.5 1,21 1,14.5 1.7,21 0.8,6.5 -1,7 -1.7,0.5 -3.7,3 -2,2.5 -3.5,5.5 -1.5,3 -2.8,3.5 -1.2,0.5 -3.2,4 -2,3.5 -3,3.5 -1,0 -1.2,3.5 -0.3,3.5 -0.8,8 l -0.5,4.5 -0.3,-0.2 -0.2,-0.3 -0.2,-0.3 -0.3,-0.2 -0.3,0.2 -0.2,0.3 h -1 l -0.2,-0.3 -0.3,-0.2 -0.3,0.2 -0.2,0.3 -0.5,0.3 -0.5,0.2 -0.2,-0.5 -0.3,-0.5 -0.5,-1 -0.5,-1 -0.5,-1.5 q -0.5,-1.5 -2,-5 -1.5,-3.5 -2.5,-1 -1,2.5 -4.3,-5.5 l -3.2,-8 -0.2,-0.5 q -0.3,-0.5 -1.6,-11.7 -1.2,-11.3 -2,-16 -0.7,-4.8 -1.7,-15.8 -1,-11 -2,-25 -1,-14 -2.3,-30 l -1.2,-16 v -0.5 h 4 l 0.2,0.3 0.3,0.2 0.3,0.2 0.2,0.3 0.2,0.3 0.3,0.2 0.3,0.2 0.2,0.3 0.2,0.3 0.3,0.2 v -12 z" />
  <path
     style="fill:#7e7f78;fill-rule:evenodd;stroke:#7e7f78;stroke-width:0.5"
     inkscape:connector-curvature="0"
     id="path46"
     d="m 361.25415,347.13929 v 0.2 l -42.5,0.2 q -42.5,0.3 -93.5,0 l -51,-0.2 0.2,-7 0.3,-7 0.5,-1.5 0.5,-1.5 0.3,0.2 0.2,0.3 h 3 l 1,-0.3 1,-0.2 -0.2,1 -0.3,1 -0.3,0.2 -0.2,0.3 -0.2,0.3 -0.3,0.2 -0.3,0.2 -0.2,0.3 -0.2,0.3 -0.3,0.2 1.3,1 q 1.2,1 0.7,1.8 -0.5,0.7 -0.7,0.4 -0.3,-0.2 -0.6,1.3 l -0.2,1.5 1,0.2 1,0.3 0.2,0.3 0.3,0.2 0.3,0.2 0.2,0.3 0.2,0.3 0.3,0.2 0.3,-1 q 0.2,-1 4.4,-1.5 4.3,-0.5 4.6,-2.5 0.2,-2 1.2,-2 1,0 1,2.5 0,2.5 2.5,2.5 h 2.5 l 0.2,-1 0.3,-1 0.3,0.2 0.2,0.3 0.2,0.3 0.3,0.2 1.3,-0.5 q 1.2,-0.5 1.7,-5 0.5,-4.5 12,-6.3 11.5,-1.7 79.5,-1.7 68,0 68.8,0.7 0.7,0.8 1,9.8 0.2,9 -1.8,9.8 -2,0.7 -2,1 z" />
  <path
     style="fill:#0e0f0e;fill-rule:evenodd;stroke:#0e0f0e;stroke-width:0.5"
     inkscape:connector-curvature="0"
     id="path48"
     d="m 211.05415,787.13929 3.7,4.2 0.5,1 0.5,1 0.3,0.2 0.2,0.3 0.2,0.3 0.3,0.2 0.5,-2.5 0.5,-2.5 0.5,-2 q 0.5,-2 0.8,-2 h 0.2 l 0.2,1.5 q 0.3,1.5 0.6,7.5 l 0.2,6 h -0.5 l -1,1.5 q -1,1.5 -1.3,2.5 l -0.2,1 h -2 l -0.2,-2.5 q -0.3,-2.5 -1.3,-5 -1,-2.5 -5.7,-6.3 l -4.8,-3.7 h -5 l -2,0.5 -2,0.5 -1,0.3 -1,0.2 1.8,5.5 q 1.7,5.5 1.2,6 -0.5,0.5 -1,3 l -0.5,2.5 -0.5,1 -0.5,1 -0.3,-3 q -0.2,-3 -2.2,-1.2 -2,1.7 -3.2,0 l -1.3,-1.8 -0.3,-0.2 -0.2,-0.3 h -4 l -0.2,-0.3 -0.3,-0.2 -0.3,0.2 -0.2,0.3 -0.2,0.3 -0.3,0.2 -0.3,0.2 -0.2,0.3 -0.2,0.3 -0.3,0.2 0.5,5 q 0.5,5 1,6.5 l 0.5,1.5 0.3,0.2 0.2,0.3 1,0.5 1,0.5 0.2,0.3 0.3,0.2 0.3,0.2 0.2,0.3 0.2,0.3 0.3,0.2 0.3,0.2 0.2,0.3 1,0.3 1,0.2 v 2 l -1,-0.2 -1,-0.3 -1,-0.5 -1,-0.5 -0.2,-0.3 -0.3,-0.2 -0.3,-0.2 -0.2,-0.3 -0.2,-0.3 -0.3,-0.2 -0.3,-0.2 -0.2,-0.3 -0.2,-0.3 -0.3,-0.2 -0.3,-0.2 -0.2,-0.3 -0.2,-0.3 -0.3,-0.2 -0.3,-0.2 -0.2,-0.3 -0.2,-0.3 -0.3,-0.2 -0.3,-0.2 -0.2,-0.3 -0.2,-0.3 -0.3,-0.2 -0.5,-1 q -0.5,-1 -2,-8.5 -1.5,-7.5 0.5,-11.5 2,-4 3.7,-5.5 1.8,-1.5 1.8,-2.5 0,-1 3.5,-3.2 3.5,-2.3 13,-1.3 9.5,1 13.3,5.3 z" />
</svg>
